<svg xmlns="http://www.w3.org/2000/svg" viewBox="0 0 32 32">
  <defs>
    <linearGradient id="gold" x1="0%" y1="0%" x2="100%" y2="100%">
      <stop offset="0%" style="stop-color:#d4a853"/>
      <stop offset="50%" style="stop-color:#f0d78c"/>
      <stop offset="100%" style="stop-color:#d4a853"/>
    </linearGradient>
    <linearGradient id="teal" x1="0%" y1="0%" x2="100%" y2="0%">
      <stop offset="0%" style="stop-color:#2dd4bf"/>
      <stop offset="100%" style="stop-color:#14b8a6"/>
    </linearGradient>
  </defs>
  <rect x="0" y="0" width="32" height="32" rx="8" fill="url(#gold)"/>
  <rect x="2" y="2" width="28" height="28" rx="6" fill="#0a0a0b"/>
  <g transform="translate(16, 17) rotate(-25) scale(0.38)">
    <path d="M-22,7 L-8,7 L5,-14 L8,-14 L0,4 L22,4 L26,0 L26,7 L22,9 L0,9 L8,18 L5,18 L-8,10 L-22,10 Z" fill="url(#gold)"/>
  </g>
  <circle cx="7" cy="24" r="1.8" fill="url(#teal)" opacity="0.4"/>
  <circle cx="11" cy="19" r="2" fill="url(#teal)" opacity="0.6"/>
  <circle cx="16" cy="13" r="2.2" fill="url(#teal)" opacity="0.8"/>
  <circle cx="22" cy="6" r="2.5" fill="url(#teal)"/>
</svg>